# xmcd
#
# Track frame offsets:
# 150
# 14320
# 27622
# 44552
# 61457
# 75435
# 90320
# 102845
# 117092
# 129567
# 142245
# 157062
#
# Disc length: 2286 seconds
#
#
# Revision: 0
# Processed by: cddbd v1.5.2PL0 Copyright (c) Steve Scherf et al.
# Submitted via: FreeRIP 2.945 
#
DISCID=9f08ec0c
DTITLE=canarinhos de cristo - FANTASTICO
DYEAR=1900
DGENRE=Gospel
TTITLE0=fantastico
TTITLE1=eu nao vivo de sonhos
TTITLE2=principe da paz
TTITLE3=noide de verao
TTITLE4=preciso de ti
TTITLE5=um dia vai chegar ao fim
TTITLE6=nao vou te esquecer
TTITLE7=aleluia
TTITLE8=e fogo santo
TTITLE9=seu nome e jesus
TTITLE10=deus
TTITLE11=volta
EXTD=
EXTT0=
EXTT1=
EXTT2=
EXTT3=
EXTT4=
EXTT5=
EXTT6=
EXTT7=
EXTT8=
EXTT9=
EXTT10=
EXTT11=
PLAYORDER=
